<svg xmlns="http://www.w3.org/2000/svg" width="117" height="117"><g fill="none"><circle cx="58.5" cy="58.5" r="58.5" fill="#D2F4FF"/><path fill="#008ABA" d="M24.274 45.948c4.332-.282 8.212 2.118 12.45 1.03.689-.182 4.238 1.998 1.058 4.357-1.461 1.078-1.75 2.449-2.057 4.238-.504 2.942 1.674 7.131-3.253 8.529-.965.275-.045 1.075.207 1.552 1.14 2.16.982 4.155.823 6.644-.183 2.933-.84 5.36-1.785 7.97-.324.907-.372 2.891 1.123 2.909 4.36.04 5.259 3.375 6.916 6.26 1.14 1.98 3.036 4.494 5.482 2.06 3.463-3.448 7.309-5.519 12.04-4.368 7.96 1.936 10.42-6.658 16.53-8.066-1.689-4.91 8.37-7.599 2.484-13.478-1.213-1.215.141-3.334 1.116-4.628 3.198-4.272 4.435-10.302 11.127-11.497 1.867-.333 3.335-2.664 5.093-3.935 1.73-1.26 1.467-2.99 1.11-4.577-.514-2.335-2.23-.954-3.588-.979-2.757-.034-5.648.632-8.07-1.651-.665-.635-2.467-.855-3.277-.412-4.266 2.355-7.86-.261-11.36-1.672-1.668-.673-3.15-1.213-4.96-1.566-6.963-1.367-14.034-.347-21.07-1.096-5.52-.59-10.972-2.331-16.695-2.04-3.401.166-3.711 1.336-3.718 4.138-.007 3.77 3.553 6.583 2.274 10.278z"/></g></svg>