<svg xmlns="http://www.w3.org/2000/svg" width="117" height="117"><g fill="none"><circle cx="58.5" cy="58.5" r="58.5" fill="#D2F4FF"/><circle cx="58.5" cy="58.5" r="39.78" fill="#6ABBD7"/><path fill="#008ABA" d="M75.333 22.446C87.707 28.233 96.61 40.203 98.069 54.38c-1.028 1.021-2.208 2.34-2.815 3.535-1.213 2.392.351 11.753-3.313 13.843-3.665 2.09-9.259-1.739-11.267-6.57-2.007-4.832 1.739-8.089-4.015-9.664-5.754-1.575-6.674-5.24-8.708-9.7-2.033-4.46-2.822-9.954.002-16.794 1.567-3.796 4.807-5.669 7.38-6.584zm-50.53 14.902a39.935 39.935 0 0 1 18.002-15.412c2.452.199 4.34 2.076 6.23 3.954 2.446 2.432 4.893 9.727 4.893 10.943 0 1.216-1.223 2.432-3.67 2.432-2.446 0-4.893 2.431-7.34 7.295-1.054 2.097-1.2 3.968-1.023 5.418.936.187 2.256.24 3.577-.417 2.446-1.216 9.786 0 12.232 2.432 2.447 2.432 4.893 8.63 3.67 13.375-1.223 4.745-6.116 10.943-8.563 12.159-2.446 1.216-4.946 4.91-4.946 4.91s-4.575 1.065-4.575-1.367 2.182-9.623 2.182-12.055c0-2.431 0-4.863-3.67-7.295-2.318-1.536-3.172-5.496-3.486-8.206-2.785-1.137-7.571-3.588-10.076-7.738-2.205-3.652-3.085-7.744-3.436-10.428z"/></g></svg>