<svg xmlns="http://www.w3.org/2000/svg" width="117" height="117"><g fill="none" fill-rule="evenodd"><circle cx="58.5" cy="58.5" r="58.5" fill="#D2F4FF" fill-rule="nonzero"/><path fill="#008ABA" d="M75.994 52.083a5.22 5.22 0 0 1 1.462 6.979L63.098 83.426a5.22 5.22 0 0 1-5.221 2.524 5.447 5.447 0 0 1-3.88-2.698L39.76 59.045a5.22 5.22 0 0 1 1.427-6.962 5.447 5.447 0 0 1 3.22-.94h3.585a3.655 3.655 0 0 1 2.228.697 13.818 13.818 0 0 0 16.759 0 3.655 3.655 0 0 1 2.21-.697h3.585a5.43 5.43 0 0 1 3.22.94zm-17.403-2.68a8.702 8.702 0 1 1 0-17.403 8.702 8.702 0 0 1 0 17.403z"/></g></svg>