<svg xmlns="http://www.w3.org/2000/svg" width="117" height="117"><g fill="none" fill-rule="evenodd"><circle cx="58.5" cy="58.5" r="58.5" fill="#D2F4FF" fill-rule="nonzero"/><path fill="#008ABA" d="M79.144 77.146a5.928 5.928 0 0 1 .12 5.928c-1.021 1.848-2.946 2.971-5.013 2.924H43.768c-2.07.055-4.002-1.066-5.028-2.915a5.928 5.928 0 0 1 .116-5.937l11.605-19.092c.896-1.46 2.627-2.13 4.237-1.64a14.47 14.47 0 0 0 8.623 0c1.604-.48 3.325.188 4.219 1.64l11.604 19.092zM59.01 51.285c-5.177 0-9.374-4.317-9.374-9.642 0-5.326 4.197-9.643 9.374-9.643 5.176 0 9.373 4.317 9.373 9.643 0 5.325-4.197 9.642-9.373 9.642z"/></g></svg>