<svg xmlns="http://www.w3.org/2000/svg" width="117" height="117"><g fill="none"><circle cx="58.5" cy="58.5" r="58.5" fill="#D2F4FF"/><g transform="translate(24 24)"><path fill="#6ABBD7" d="M70 34.167l-7.371 6.31 3.91 8.88-9.385 2.474-.33 9.7-9.53-1.83-4.507 8.595L35 62.5l-7.787 5.796-4.507-8.594-9.53 1.829-.33-9.7-9.386-2.474 3.911-8.88L0 34.166l7.371-6.31-3.91-8.881 9.385-2.474.33-9.7 9.53 1.83L27.213.037 35 5.833 42.787.037l4.507 8.595 9.53-1.83.33 9.7 9.386 2.474-3.911 8.881z"/><circle cx="35" cy="34.167" r="23.333" fill="#008ABA"/></g></g></svg>