<svg xmlns="http://www.w3.org/2000/svg" width="117" height="117"><g fill="none"><circle cx="58.5" cy="58.5" r="58.5" fill="#D2F4FF"/><path fill="#008ABA" d="M36.19 44.38a8.19 8.19 0 1 1 0-16.38 8.19 8.19 0 0 1 0 16.38zm22.23 0a8.19 8.19 0 1 1 0-16.38 8.19 8.19 0 0 1 0 16.38zm22.23 0a8.19 8.19 0 1 1 0-16.38 8.19 8.19 0 0 1 0 16.38zM36.19 66.61a8.19 8.19 0 1 1 0-16.38 8.19 8.19 0 0 1 0 16.38zm22.23 0a8.19 8.19 0 1 1 0-16.38 8.19 8.19 0 0 1 0 16.38zM36.19 88.84a8.19 8.19 0 1 1 0-16.38 8.19 8.19 0 0 1 0 16.38z"/><path fill="#6ABBD7" d="M80.65 66.61a8.19 8.19 0 1 1 0-16.38 8.19 8.19 0 0 1 0 16.38zM58.42 88.84a8.19 8.19 0 1 1 0-16.38 8.19 8.19 0 0 1 0 16.38zm22.23 0a8.19 8.19 0 1 1 0-16.38 8.19 8.19 0 0 1 0 16.38z"/></g></svg>