<svg width="35" height="19" xmlns="http://www.w3.org/2000/svg"><path d="M34.631 3.117c.004-.037-.001-.077-.037-.093-.184-.079-.394-.126-.58-.17a2.842 2.842 0 0 1-.277-.072c-.125-.04-.253-.076-.388-.114l-.212-.06a6.508 6.508 0 0 1-.173-.053 2.264 2.264 0 0 1-.532-.232c-.118-.073-.19-.222-.264-.377a1.573 1.573 0 0 0-.183-.318C31.333.822 30.053.512 29.675.436c-.743-.15-1.322-.122-1.718.085-.28.15-.5.455-.659.68a2.87 2.87 0 0 1-.159.201c-.02.027-.043.05-.066.075l-.092.103a8.63 8.63 0 0 1-.55.528 9.135 9.135 0 0 0-.56.538c-.334.357-.465.703-.616 1.102l-.069.174c-.004.012-.01.021-.014.033a.21.21 0 0 1-.01.027.284.284 0 0 1-.013.035c-.028.069-.056.144-.084.218-.073.192-.148.393-.248.568-.003.003-.003.007-.006.01a1.511 1.511 0 0 1-.343.339c-.083.053-.167.09-.256.131-.05.02-.1.044-.154.071l-.001.006-.035.015c-.227.109-.511.242-.74.382-.426.253-.815.317-1.227.386-.242.04-.494.08-.77.162-.14.041-.282.09-.42.14a5.96 5.96 0 0 1-.563.169l-.175.044c-.137.022-.273.03-.42.039l-.46.026c-.217.007-.432.037-.639.062a5.19 5.19 0 0 1-.666.063c-1.03.01-2.08-.09-3.095-.187l-.083-.01a57.1 57.1 0 0 0-.452-.037 17.097 17.097 0 0 1-.923-.094 9.39 9.39 0 0 1-.328-.053 13.571 13.571 0 0 1-1.017-.244l-.475-.12-.01-.002-.048-.015c-.018-.005-.036-.004-.055-.008-.103-.025-.205-.05-.31-.07a6.127 6.127 0 0 0-.584-.097 5.25 5.25 0 0 0-.904-.04l-.058.007-.01-.001c-.008 0-.013.003-.021.003a3.649 3.649 0 0 0-.754.132c-.013-.004-.026-.005-.04-.008A12.703 12.703 0 0 1 7.343 5.6C5.817 5.08 4.448 4.28 3.38 3.285a22.629 22.629 0 0 1-1.194-1.21c-.206-.231-.412-.478-.618-.725C1.226.94.88.512.527.036a.082.082 0 0 0-.06-.034.407.407 0 0 0-.303.096C.091.164-.019.264.003.387.108.822.605 1.472.9 1.862c.054.07.099.128.132.173.102.139.223.286.361.447.128.152.271.306.41.458.214.23.432.467.615.69.739.896 1.718 1.61 2.668 2.303.208.15.414.3.615.453l.077.055c.322.239.766.584.922.96a.58.58 0 0 1 0 .107c-.068.059-.14.113-.204.176-.465.466-.751.964-.846 1.476a10.79 10.79 0 0 0-.075.467c-.046.318-.093.645-.197.955a7.387 7.387 0 0 0-.122.41 6.587 6.587 0 0 1-.175.547c-.015.037-.03.07-.042.105-.023.05-.045.103-.071.153-.174.326-.396.546-.686.677-.15.072-.3.1-.447.132-.3.059-.585.118-.782.5-.168.326-.16.659-.154.98.003.184.008.371-.021.554-.033.209-.09.414-.143.614-.13.47-.262.957-.066 1.503.258.716.814 1.245 1.456 1.375.129.03.26.041.4.041.135 0 .277-.01.43-.036a.753.753 0 0 0 .42-.221c.012-.012.012-.022.021-.034.004-.004.01-.003.013-.007.166-.18.114-.461.05-.686a1.107 1.107 0 0 0-.364-.563c-.104-.083-.229-.121-.348-.16-.146-.044-.284-.088-.358-.201-.187-.28-.171-.762.042-1.17.17-.327.42-.52.69-.53.173-.008.353 0 .525.008.255.01.52.021.787-.013.428-.06.949-.145 1.45-.307-.056.084-.12.172-.166.253a.929.929 0 0 0-.111.624c.089.419.445.605.783.729.351.13.713.29.987.579.076.083.15.17.227.26.293.35.597.71 1.081.778.174.026.346.036.518.036.442 0 .895-.07 1.405-.175.005-.001.002-.01.008-.01.015-.006.034-.008.046-.024.259-.335.02-.765-.06-.889-.266-.42-.714-.393-1.108-.373-.14.008-.272.016-.399.005-.213-.016-.466-.136-.75-.363-.278-.216-.536-.51-.424-.672.09-.136.271-.227.399-.281.395-.173.773-.335 1.066-.698.167-.204.325-.46.335-.763.274.022.55.04.83.058.484.028.984.06 1.488.123a15.96 15.96 0 0 1 1.59.291c.124.029.25.055.374.084.516.124 1.029.26 1.531.395 1.297.35 2.635.7 4.021.813.045.007.091.008.138.014.082.005.164.02.246.023l.088.006c.05.444.1.899.115 1.343.012.351.045 1.278.747 1.461.187.052.376.065.564.065.157 0 .312-.01.464-.021l.049-.003c.09-.005.18-.005.27-.002.198.002.402.005.602-.068a.666.666 0 0 0 .443-.765c-.017-.098-.072-.183-.122-.27.04-.002.08-.005.126-.01.06.004.122.008.181.008.186 0 .358-.028.472-.144.102-.1.141-.253.12-.46-.042-.421-.329-.661-.855-.705-.142-.01-.242-.048-.297-.116-.05-.062-.068-.149-.055-.265.028-.234.063-.444.12-.71.962-.388 1.792-.947 2.5-1.473.13-.1.27-.189.402-.279.226-.15.458-.304.667-.489.587-.533.88-1.233 1.085-1.864a1.338 1.338 0 0 0 .644.201c.18 0 .325-.051.425-.154.217-.219.19-.612.168-.957-.004-.058-.01-.115-.01-.17-.023-.519-.069-1.033-.112-1.543.008-.006.009-.016.016-.023.009-.01.022-.017.03-.029.005-.009.005-.018.009-.027a.91.91 0 0 0 .149-.416l.002-.034a.957.957 0 0 0 .01-.082c.017-.158.028-.254.141-.362.16-.153.3-.22.483-.231.063-.004.125-.002.187 0 .059.002.12.004.181 0a.814.814 0 0 0 .296-.071.925.925 0 0 0 .183-.124c.08-.064.143-.115.243-.124.074-.008.144-.014.21-.019.237-.02.443-.035.702-.151.277-.126.511-.298.694-.51.162-.187.313-.398.435-.61a.087.087 0 0 0-.033-.117.08.08 0 0 0-.023-.007c.06-.115.123-.23.173-.348.14-.328.283-.762.044-1.08a.8.8 0 0 0-.241-.204z" fill="#009fc7" fill-rule="evenodd"/></svg>