<svg xmlns="http://www.w3.org/2000/svg" width="170" height="27"><path fill="#FFF" fill-rule="evenodd" d="M66.716 6.424h5.412c.733 0 1.445.077 2.134.231a5.48 5.48 0 0 1 1.837.759A3.96 3.96 0 0 1 77.386 8.8c.323.572.484 1.269.484 2.09 0 1.13-.319 2.05-.957 2.761-.638.711-1.507 1.192-2.607 1.441L78.464 22H75.12l-3.608-6.6h-2.024V22h-2.772V6.424zm5.038 6.71c.396 0 .792-.03 1.188-.088a3.43 3.43 0 0 0 1.067-.33c.315-.161.576-.392.781-.693.205-.3.308-.686.308-1.155 0-.425-.095-.774-.286-1.045a2.13 2.13 0 0 0-.726-.649 3.036 3.036 0 0 0-1.001-.33 7.025 7.025 0 0 0-1.089-.088h-2.508v4.378h2.266zm15.224 7.524h-.066c-.264.47-.69.854-1.276 1.155-.587.3-1.254.451-2.002.451-.425 0-.869-.055-1.331-.165a3.962 3.962 0 0 1-1.276-.55 3.198 3.198 0 0 1-.968-1.012c-.257-.418-.385-.935-.385-1.551 0-.792.224-1.423.671-1.892.447-.47 1.023-.829 1.727-1.078a9.735 9.735 0 0 1 2.343-.495 26.91 26.91 0 0 1 2.519-.121v-.264c0-.66-.238-1.148-.715-1.463-.477-.315-1.045-.473-1.705-.473a3.82 3.82 0 0 0-1.606.352c-.513.235-.939.52-1.276.858l-1.364-1.606a5.958 5.958 0 0 1 2.079-1.254 7.086 7.086 0 0 1 2.387-.418c.939 0 1.712.132 2.321.396.609.264 1.089.609 1.441 1.034.352.425.598.902.737 1.43.14.528.209 1.056.209 1.584V22h-2.464v-1.342zm-.044-3.476h-.594c-.425 0-.873.018-1.342.055a5.82 5.82 0 0 0-1.298.242c-.396.125-.726.3-.99.528-.264.227-.396.539-.396.935 0 .25.055.458.165.627.11.169.253.304.429.407.176.103.374.176.594.22.22.044.44.066.66.066.91 0 1.599-.242 2.068-.726.47-.484.704-1.144.704-1.98v-.374zm11.374-2.926c-.235-.308-.557-.576-.968-.803a2.725 2.725 0 0 0-1.342-.341 2.57 2.57 0 0 0-1.166.264c-.352.176-.528.47-.528.88 0 .41.194.7.583.869.389.169.957.341 1.705.517.396.088.796.205 1.199.352s.77.341 1.1.583c.33.242.598.543.803.902.205.36.308.796.308 1.309 0 .645-.121 1.192-.363 1.639-.242.447-.565.81-.968 1.089-.403.279-.873.48-1.408.605a7.3 7.3 0 0 1-1.661.187 6.59 6.59 0 0 1-2.398-.451c-.777-.3-1.423-.73-1.936-1.287l1.738-1.628c.293.381.675.697 1.144.946.47.25.99.374 1.562.374.19 0 .385-.022.583-.066.198-.044.381-.114.55-.209.169-.095.304-.224.407-.385.103-.161.154-.36.154-.594 0-.44-.202-.755-.605-.946-.403-.19-1.008-.381-1.815-.572a8.727 8.727 0 0 1-1.155-.341 3.77 3.77 0 0 1-1.001-.55 2.549 2.549 0 0 1-.704-.847c-.176-.337-.264-.755-.264-1.254 0-.587.121-1.093.363-1.518.242-.425.561-.774.957-1.045a4.299 4.299 0 0 1 1.342-.605 5.993 5.993 0 0 1 1.54-.198c.763 0 1.507.132 2.233.396.726.264 1.302.667 1.727 1.21l-1.716 1.518zm2.464-.704V11.44h1.848V8.382h2.596v3.058h2.64v2.112h-2.64v4.906c0 .47.084.858.253 1.166.169.308.546.462 1.133.462.176 0 .367-.018.572-.055.205-.037.389-.092.55-.165l.088 2.068a4.34 4.34 0 0 1-.836.209c-.323.051-.63.077-.924.077-.704 0-1.276-.099-1.716-.297a2.602 2.602 0 0 1-1.045-.814 3.014 3.014 0 0 1-.528-1.188 6.907 6.907 0 0 1-.143-1.441v-4.928h-1.848zm8.998-2.112h2.53v1.76h.044a3.851 3.851 0 0 1 1.232-1.496c.528-.381 1.144-.572 1.848-.572.103 0 .213.004.33.011.117.007.22.026.308.055v2.42a3.107 3.107 0 0 0-.814-.11c-.601 0-1.085.11-1.452.33a2.64 2.64 0 0 0-.858.792 2.836 2.836 0 0 0-.418.946 3.68 3.68 0 0 0-.11.77V22h-2.64V11.44zm15.444 4.224c0-.337-.048-.66-.143-.968a2.215 2.215 0 0 0-.451-.814 2.202 2.202 0 0 0-.781-.561c-.315-.14-.686-.209-1.111-.209-.792 0-1.463.238-2.013.715-.55.477-.854 1.089-.913 1.837h5.412zm2.64 1.188v.352c0 .117-.007.235-.022.352h-8.03a2.615 2.615 0 0 0 .968 1.859c.279.227.594.407.946.539.352.132.719.198 1.1.198.66 0 1.217-.121 1.672-.363a3.132 3.132 0 0 0 1.122-1.001l1.76 1.408c-1.041 1.408-2.552 2.112-4.532 2.112a6.447 6.447 0 0 1-2.266-.385 5.347 5.347 0 0 1-1.793-1.089 4.908 4.908 0 0 1-1.188-1.727c-.286-.682-.429-1.456-.429-2.321 0-.85.143-1.624.429-2.321a5.284 5.284 0 0 1 1.177-1.782 5.265 5.265 0 0 1 1.771-1.144 5.926 5.926 0 0 1 2.211-.407c.733 0 1.412.121 2.035.363a4.413 4.413 0 0 1 1.617 1.078c.455.477.81 1.07 1.067 1.782.257.711.385 1.544.385 2.497zm9.108 3.806h-.066c-.264.47-.69.854-1.276 1.155-.587.3-1.254.451-2.002.451-.425 0-.869-.055-1.331-.165a3.962 3.962 0 0 1-1.276-.55 3.198 3.198 0 0 1-.968-1.012c-.257-.418-.385-.935-.385-1.551 0-.792.224-1.423.671-1.892.447-.47 1.023-.829 1.727-1.078a9.735 9.735 0 0 1 2.343-.495 26.91 26.91 0 0 1 2.519-.121v-.264c0-.66-.238-1.148-.715-1.463-.477-.315-1.045-.473-1.705-.473a3.82 3.82 0 0 0-1.606.352c-.513.235-.939.52-1.276.858l-1.364-1.606a5.958 5.958 0 0 1 2.079-1.254 7.086 7.086 0 0 1 2.387-.418c.939 0 1.712.132 2.321.396.609.264 1.089.609 1.441 1.034.352.425.598.902.737 1.43.14.528.209 1.056.209 1.584V22h-2.464v-1.342zm-.044-3.476h-.594c-.425 0-.873.018-1.342.055a5.82 5.82 0 0 0-1.298.242c-.396.125-.726.3-.99.528-.264.227-.396.539-.396.935 0 .25.055.458.165.627.11.169.253.304.429.407.176.103.374.176.594.22.22.044.44.066.66.066.91 0 1.599-.242 2.068-.726.47-.484.704-1.144.704-1.98v-.374zm4.07-3.63V11.44h1.848V8.382h2.596v3.058h2.64v2.112h-2.64v4.906c0 .47.084.858.253 1.166.169.308.546.462 1.133.462.176 0 .367-.018.572-.055.205-.037.389-.092.55-.165l.088 2.068a4.34 4.34 0 0 1-.836.209c-.323.051-.63.077-.924.077-.704 0-1.276-.099-1.716-.297a2.602 2.602 0 0 1-1.045-.814 3.014 3.014 0 0 1-.528-1.188 6.907 6.907 0 0 1-.143-1.441v-4.928h-1.848zm8.382 3.124c0-.836.15-1.595.451-2.277a5.32 5.32 0 0 1 1.221-1.749 5.382 5.382 0 0 1 1.826-1.122 6.338 6.338 0 0 1 2.244-.396c.792 0 1.54.132 2.244.396a5.382 5.382 0 0 1 1.826 1.122c.513.484.92 1.067 1.221 1.749.3.682.451 1.441.451 2.277 0 .836-.15 1.599-.451 2.288-.3.69-.708 1.28-1.221 1.771a5.576 5.576 0 0 1-1.826 1.155 6.04 6.04 0 0 1-2.244.418 6.04 6.04 0 0 1-2.244-.418 5.576 5.576 0 0 1-1.826-1.155 5.418 5.418 0 0 1-1.221-1.771c-.3-.69-.451-1.452-.451-2.288zm2.684 0c0 .41.062.821.187 1.232.125.41.312.777.561 1.1.25.323.565.587.946.792.381.205.836.308 1.364.308.528 0 .983-.103 1.364-.308a2.94 2.94 0 0 0 .946-.792c.25-.323.436-.69.561-1.1a4.114 4.114 0 0 0 0-2.453 3.413 3.413 0 0 0-.561-1.089 2.817 2.817 0 0 0-.946-.781c-.381-.198-.836-.297-1.364-.297-.528 0-.983.099-1.364.297a2.817 2.817 0 0 0-.946.781c-.25.323-.436.686-.561 1.089a4.1 4.1 0 0 0-.187 1.221zm11.352-5.236h2.53v1.76h.044a3.851 3.851 0 0 1 1.232-1.496c.528-.381 1.144-.572 1.848-.572.103 0 .213.004.33.011.117.007.22.026.308.055v2.42a3.107 3.107 0 0 0-.814-.11c-.601 0-1.085.11-1.452.33a2.64 2.64 0 0 0-.858.792 2.836 2.836 0 0 0-.418.946 3.68 3.68 0 0 0-.11.77V22h-2.64V11.44zM51.452 4.63c.137.08.262.177.357.304.356.472.143 1.117-.064 1.605-.074.176-.168.346-.258.517a.118.118 0 0 1 .035.01.13.13 0 0 1 .049.174 5.98 5.98 0 0 1-.647.907c-.271.313-.62.57-1.031.756-.385.173-.69.196-1.044.226-.097.007-.2.015-.31.027-.149.014-.243.09-.362.184a1.374 1.374 0 0 1-.271.184 1.21 1.21 0 0 1-.44.106c-.09.006-.182.004-.27 0-.091-.002-.183-.006-.277 0-.272.018-.479.116-.717.343-.168.16-.186.304-.21.539a1.172 1.172 0 0 1-.015.121l-.004.051a1.35 1.35 0 0 1-.22.617c-.006.014-.006.028-.014.041-.012.018-.031.028-.045.043-.01.01-.012.026-.024.034.065.758.133 1.522.167 2.294.002.08.01.165.015.25.033.514.072 1.098-.25 1.423-.148.153-.363.23-.631.23-.021 0-.037 0-.057-.003-.312-.013-.613-.13-.9-.297-.305.938-.739 1.978-1.612 2.77-.31.274-.655.503-.99.727-.198.133-.405.266-.599.413-1.05.782-2.284 1.612-3.712 2.188a10.53 10.53 0 0 0-.18 1.056c-.02.173.008.302.082.394.082.1.231.157.442.173.782.064 1.207.42 1.27 1.048.031.305-.027.533-.178.682-.17.172-.426.213-.701.213-.088 0-.18-.006-.27-.012a3.626 3.626 0 0 1-.187.016c.074.13.156.255.181.402.09.505-.168.954-.658 1.136-.297.108-.6.104-.895.1a4.552 4.552 0 0 0-.4.004l-.073.004a9.98 9.98 0 0 1-.69.031c-.279 0-.56-.02-.838-.096-1.043-.272-1.092-1.65-1.11-2.17a26.886 26.886 0 0 0-.17-1.997 2.766 2.766 0 0 1-.13-.008c-.123-.006-.245-.027-.366-.035-.07-.008-.138-.01-.205-.02-2.06-.168-4.048-.69-5.975-1.209-.746-.2-1.508-.401-2.274-.585-.185-.043-.371-.083-.557-.126a23.713 23.713 0 0 0-2.362-.433 32.578 32.578 0 0 0-2.21-.182 59.903 59.903 0 0 1-1.232-.086c-.016.45-.25.83-.499 1.134-.435.539-.996.78-1.584 1.037-.19.08-.457.215-.592.417-.166.24.217.678.629 1 .422.336.8.514 1.116.538.187.016.385.004.592-.008.586-.03 1.25-.069 1.647.554.119.185.473.823.088 1.321-.018.023-.045.027-.069.035-.008.002-.004.014-.011.016-.759.157-1.43.26-2.087.26a5.13 5.13 0 0 1-.77-.054c-.719-.1-1.17-.635-1.606-1.156-.115-.134-.225-.263-.338-.386-.406-.43-.944-.666-1.465-.86-.502-.184-1.032-.46-1.165-1.084-.06-.284.002-.638.166-.926.069-.12.162-.251.246-.377-.744.241-1.518.367-2.155.457-.396.05-.789.035-1.168.02-.256-.012-.524-.024-.781-.012-.399.015-.772.301-1.024.787-.317.606-.34 1.32-.063 1.738.11.169.315.233.532.3.177.057.363.113.517.237.315.245.467.592.54.836.095.334.174.75-.073 1.02-.004.005-.013.003-.02.009-.013.018-.013.033-.03.051-.204.192-.39.292-.624.33-.228.038-.44.052-.639.052-.209 0-.404-.018-.595-.06-.954-.195-1.78-.98-2.163-2.044-.291-.811-.094-1.534.097-2.234.08-.295.164-.601.213-.91.043-.273.035-.551.032-.823-.01-.478-.022-.972.228-1.458.293-.566.715-.654 1.163-.743.217-.047.44-.088.664-.196.43-.193.76-.52 1.018-1.005.039-.074.072-.154.105-.227.02-.053.041-.102.063-.157a9.54 9.54 0 0 0 .26-.81c.054-.202.115-.414.181-.612.155-.46.225-.946.294-1.418.033-.23.068-.465.11-.694.142-.76.568-1.5 1.257-2.192.096-.094.203-.175.303-.263a.86.86 0 0 0 0-.158c-.23-.559-.89-1.072-1.37-1.427l-.113-.082c-.299-.227-.606-.449-.914-.672-1.41-1.029-2.866-2.09-3.965-3.423-.271-.33-.595-.681-.912-1.024-.207-.226-.42-.455-.61-.68a12.095 12.095 0 0 1-.537-.664 9.756 9.756 0 0 0-.195-.257C.899 2.187.16 1.221.004.575-.029.393.135.244.243.145a.605.605 0 0 1 .45-.142c.036.002.07.021.09.05a44.194 44.194 0 0 0 1.544 1.952v-.004.004c.307.368.614.735.919 1.078A33.62 33.62 0 0 0 5.02 4.88c1.588 1.477 3.622 2.666 5.889 3.438.746.255 1.404.443 2.13.602.019.004.038.006.058.012.363-.11.73-.163 1.12-.196.011 0 .019-.006.03-.006l.016.002c.03-.004.057-.008.086-.01.44-.031.924.014 1.342.059.293.033.583.084.868.145.156.03.309.066.461.104.03.005.055.003.082.011l.07.022.016.004c.238.059.473.117.705.178.495.131 1.003.267 1.513.363.162.029.324.054.486.078a24.8 24.8 0 0 0 1.372.139l.672.057.123.014c1.506.143 3.067.293 4.597.278a7.7 7.7 0 0 0 .99-.094c.307-.038.628-.083.948-.092l.684-.04a6.28 6.28 0 0 0 .625-.056l.26-.067c.278-.069.56-.153.836-.25.206-.075.417-.148.624-.208.41-.122.785-.183 1.145-.241.611-.102 1.19-.198 1.822-.574.34-.208.762-.406 1.1-.567l.051-.023c.002-.002 0-.006.002-.008.08-.041.155-.076.229-.106.133-.06.258-.115.38-.194.202-.13.36-.317.505-.495a.027.027 0 0 0 .006-.008c.004-.006.004-.012.008-.016.148-.26.26-.558.369-.844.04-.11.082-.222.125-.324a.422.422 0 0 0 .02-.053.312.312 0 0 0 .013-.039c.006-.017.016-.031.022-.049.035-.086.068-.174.101-.258.225-.594.42-1.107.915-1.638.263-.282.552-.545.834-.8.275-.248.56-.507.817-.783.044-.053.091-.102.136-.153.034-.037.069-.072.098-.112.082-.096.164-.196.236-.297.237-.335.563-.79.98-1.011.587-.308 1.447-.351 2.553-.128.56.114 2.462.574 3.43 1.771.112.138.194.308.272.473.112.23.217.452.393.56.205.13.455.239.79.345.027.01.138.043.257.078l.315.09c.201.057.39.11.576.169.108.037.256.072.412.107.276.065.589.136.862.253.053.024.06.082.055.137z"/></svg>