<svg xmlns="http://www.w3.org/2000/svg" xmlns:xlink="http://www.w3.org/1999/xlink" width="157" height="27"><defs><path id="a" d="M0 .128h3.093v3.668H0V.129z"/></defs><g fill="none" fill-rule="evenodd"><path fill="#FFF" fill-rule="nonzero" d="M91.911 17.237c.189-.393.49-.756.954-.755.328.003.575.104.768.25l-.008.004s.017.008.038.022c.095.075.17.167.23.258.17.256.355.742.38 1.613 0 0-2.066-.026-2.69-.036a4.47 4.47 0 0 1 .328-1.356zm4.228 4.692l-.062-.09v-.002l-1.73-.345-.087.057c-.076.325-.438 1.667-1.342 1.598-.613-.043-.937-.675-1.11-1.296v-.066s-.142-.603-.22-1.429c.314-.004 4.279-.317 4.279-.317s.588-1.724.038-3.416c-.154-.47-.336-.77-.513-.955-.557-.763-1.463-1.262-2.8-1.082-2.241.2-2.841 2.424-2.898 3.265l-.006.008s-.5 2.565.2 4.851c.096.396.255.774.473 1.118.029.044.06.085.085.123.523.713 1.362 1.198 2.618 1.11 2.288-.055 2.984-2.326 3.08-3.132h-.006zm-8.703-4.123c-.618-1.722-1.467-.399-1.631-.112l.179 6.816-.07.073v.005l-2.059.034v-.004l-.074-.078v-9.29l.003-.002.076-.095.002-.005 1.8-.276v.004l.067.073h.004l.01.45c3.213-1.542 3.55 1.558 3.582 2.037l-.048.073-1.765.34-.075-.043h-.001zm-29.929-.699h-1.46v-4.53l1.461.005c.344 0 1.512.485 1.512 2.214 0 1.73-1.107 2.311-1.512 2.311zm1-6.327c-.578 0-4.796-.031-5.41-.036l-.066.067s-.004 0-.006.003l.203 1.55.077.082.392.065v12.107l.074.079h2.206l.07-.08V19.13h.685l1.863 5.527.098.076 2.324-.035v-.001l.038-.072-2.047-5.604c.894-.346 2.257-1.536 2.257-4.157 0-3.194-2.133-4.084-2.758-4.084zM76.37 22.497c-.133 2.66-3.387 2.748-3.698 2.66-.312-.091-2.874.308-3.068-3.366l.076-.065.002-.005 1.67.145.085.078c.057.327.358 1.687 1.612 1.565 1.427-.135 1.564-.824 1.12-1.59-.45-.764-3.952-1.99-4.175-3.61-.223-1.622.36-3.873 2.989-3.873 2.483 0 3.057 2.809 3.152 3.2h-.002l-.057.085c-.302.105-1.431.294-1.758.35l-.078-.053h-.014c-.023-.348-.215-1.95-1.421-1.647-1.241.314-1.172 1.49-.236 1.928.657.305 3.937 1.542 3.801 4.198zm40.054-.63c-.031.088-.064.182-.11.275-.091.201-.21.39-.352.559-.193.215-.439.358-.755.34-.61-.046-.933-.68-1.107-1.3v-.07s-.66-2.777.098-4.544c.19-.395.49-.756.96-.752.358.003.622.123.817.29.082.064.442.38.565 1.14.08.357.137.835.15 1.476.02 1.234-.066 2.017-.266 2.586zm.456-7.049a2.109 2.109 0 0 0-1.306-.376 4.494 4.494 0 0 0-.687.034c-2.243.2-2.844 2.425-2.903 3.266l-.006.009s-.502 2.565.203 4.847c.103.448.292.87.558 1.245.521.715 1.361 1.194 2.618 1.11.763-.02 1.356-.289 1.803-.667.003.004.008.006.008.006s.632-.32 1.072-1.662a4.99 4.99 0 0 0 .151-.558c.148-.634.246-1.436.246-2.459 0-.982-.113-1.816-.307-2.51-.178-.91-.635-1.8-1.45-2.285zm-50.282 8.128c-.612.024-1.767.024-2.147-.301-.522-.442-.992-1.67-.608-2.114.333-.384 2.246-.581 2.755-.63v3.045zm-1.396-8.401c-2.304.055-2.991 2.358-3.078 3.15l.049.073 1.758.349.069-.046c.07-.303.434-1.68 1.35-1.612 1.21.086 1.248 1.446 1.248 1.446v.22c-.869.022-4.982.299-4.957 3.438.025 3.503 2.7 3.124 3.5 3.116.436-.004 1.014-.015 1.457-.022v.005l.579-.014c.062-.003.098-.003.098-.003l1.167-.02.066-.073v-6.554c0-1.67-.883-3.62-3.306-3.453zm36.881 8.401c-.61.024-1.766.024-2.146-.301-.523-.442-.991-1.67-.605-2.114.334-.384 2.243-.581 2.751-.63v3.045zm-1.396-8.401c-2.3.055-2.99 2.358-3.078 3.15l.052.073 1.758.349.068-.046c.07-.303.435-1.68 1.348-1.612 1.212.086 1.248 1.446 1.248 1.446v.22c-.867.022-4.98.299-4.954 3.438.023 3.503 2.697 3.124 3.498 3.116.438-.004 1.015-.015 1.456-.022v.005l.584-.014c.059-.003.094-.003.094-.003l1.17-.02.066-.073v-6.554c0-1.67-.884-3.62-3.31-3.453zM82.67 24.685a2.917 2.917 0 0 1-1.386.374c-2.424.166-3.309-1.783-3.309-3.453V16.64l-1.17.037c-.006-.003-.006-.008-.006-.008l-.07-.066v-1.967l.075-.07h1.171v-3.672l.073-.058c.622.151 1.421.352 1.955.487v.006l.063.09-.054 3.147h2.24l.058.058v1.8l-.062.068v.006l-2.272.074-.088 5.128s.039 1.36 1.248 1.446c.33.022.648-.071.94-.21l.069.028.538 1.688-.013.034zm28.285 0a2.915 2.915 0 0 1-1.386.374c-2.422.166-3.306-1.783-3.306-3.453V16.64l-1.175.037v-.008l-.074-.066v-1.967l.075-.07h1.174v-3.672l.071-.058c.622.151 1.422.352 1.952.487v.006l.068.09-.058 3.147h2.241l.06.058v1.8l-.067.068v.006l-2.27.074-.087 5.128s.038 1.36 1.248 1.446c.326.022.649-.071.94-.21l.07.028.535 1.688-.011.034zm12.827-6.88c-.617-1.72-1.465-.398-1.634-.11l.182 6.815-.07.073v.004l-2.06.035v-.004l-.073-.078v-9.29l.002-.002.078-.095.002-.004 1.797-.276v.003l.071.073h.003l.01.45c3.211-1.543 3.549 1.558 3.579 2.037l-.05.073-1.76.34-.077-.043z"/><path fill="#000" fill-rule="nonzero" d="M128.76 22.35l-.354 2.314-.078.064-1.735-.086-.072-.08-.002-.002v-2.02h.002l.069-.086 2.101-.177v.003l.068.07zm7.544-.417c-.096.809-.79 3.077-3.077 3.127-1.255.088-2.096-.391-2.62-1.11-.026-.034-.051-.074-.08-.118a3.642 3.642 0 0 1-.476-1.121c-.703-2.285-.201-4.85-.201-4.85l.007-.01c.06-.84.66-3.062 2.903-3.263 2.369-.319 3.382 1.502 3.515 3.148h-.001l-.07.082-1.767.029-.079-.075c-.049-.287-.291-1.278-1.329-1.287-.467-.003-.769.36-.957.754-.758 1.768-.1 4.546-.1 4.546v.068c.175.62.5 1.256 1.107 1.297.898.066 1.265-1.255 1.342-1.59l.086-.063v-.003l1.738.345.06.094zm5.746-.066c-.034.088-.068.182-.114.275-.09.202-.208.39-.35.559-.192.215-.439.358-.757.34-.608-.046-.934-.68-1.106-1.3v-.07s-.661-2.777.101-4.544c.187-.395.487-.756.954-.752.362.003.625.123.82.29.082.064.443.38.565 1.14.08.357.136.835.15 1.476.021 1.234-.067 2.017-.263 2.586zm1.903-4.765c-.18-.909-.637-1.799-1.453-2.284a2.103 2.103 0 0 0-1.307-.376 4.5 4.5 0 0 0-.683.034c-2.246.2-2.843 2.425-2.902 3.266l-.006.009s-.503 2.565.198 4.847c.1.397.254.779.475 1.12l.088.126c.52.714 1.36 1.193 2.613 1.109.766-.02 1.358-.289 1.804-.668a.052.052 0 0 0 .012.007s.631-.32 1.067-1.662a3.73 3.73 0 0 0 .154-.558c.147-.634.245-1.436.245-2.459 0-.982-.112-1.816-.305-2.51zm12.756.904c-.03 1.704-.156 5.863-.171 6.397l-.052.06-1.83.052-.067-.066c.037-.708.3-6.665.027-7.426-.268-.765-1.76-.4-2.433.375.022.197.027.4.027.608a609.185 609.185 0 0 1-.17 6.399l-.052.058-1.832.052-.062-.067c.032-.714.294-6.664.025-7.425-.28-.793-1.96-.357-2.6.47l.185 7.005-.071.08v.002l-2.058.034v-.003l-.073-.07v-9.305l.076-.09v-.003l1.797-.275.069.072s.006 0 .011.002l.01.548c.27-.177 1.65-1.032 2.682-.901.555.074 1.07.464 1.45 1.063.205-.132 1.97-1.201 3.051-1.063 1.115.147 2.089 1.593 2.06 3.417z"/><path fill="#AB9C97" fill-rule="nonzero" d="M36.31 23.432c-.222-.345-.578-.463-.969-.498-.402-.034-.653-.224-.604-.687.029-.263.178-.763.269-1.263-.172.053-.335.1-.458.15-.14.058-.44.17-.797.272-.058.15-.11.302-.162.45-.183.545-.79 1.596-.202 2.089.362.301.904.145 1.307.334.162.076.295.186.398.31.036.043.522-.032.593-.037.179-.015.364-.145.504-.255a.593.593 0 0 0 .251-.456.713.713 0 0 0-.13-.409"/><path fill="#CCC2B2" fill-rule="nonzero" d="M2.206 2.597c-.002-.114-.011-.226-.011-.347v.33c.005.006.009.01.012.017"/><path fill="#924219" fill-rule="nonzero" d="M9.66 11.06c.117-.104.217-.19.276-.252.466-.46.925-.904 1.5-1.225.272-.15.65-.372 1.04-.512-.458-.06-.92-.218-1.349-.32-.993-.234-1.964-.753-2.89-1.175-2.09-.952-3.776-2.5-5.273-4.216-.672-.77-1.237-1.63-1.896-2.413C1.002.868.924.804.863.727.805.652.78.551.715.484.612.38.425.452.31.504c-.377.176-.098.612.024.874.165.36.353.724.597 1.036.232.3.486.578.722.874.208.262.377.54.599.788.352.395.638.822.992 1.213.365.404.763.777 1.152 1.155.268.26.523.528.8.776.212.191.428.376.65.56.283.233.572.43.872.637.174.12.335.268.514.383.793.513 2.275 1.203 2.427 2.26"/><path fill="#171714" fill-rule="nonzero" d="M9.388 10.827a.812.812 0 0 1 .002.478c.22-.211.443-.393.546-.497.467-.46.925-.904 1.5-1.226.297-.168.723-.415 1.155-.55-.005 0-.012 0-.016-.004a.774.774 0 0 1-.095-.011c-.259-.053-.51-.11-.765-.156-1.044-.188-2-.609-2.973-1.024-.49-.204-.965-.446-1.417-.723a17.54 17.54 0 0 1-3.75-3.115l-.353-.397c-.081-.091-.165-.305-.283-.348-.012-.004-.024-.005-.036-.006-.35.112-.663.317-.908.592-.007.09.105.156.186.252.181.206.37.401.547.612.301.359.606.734.941 1.062.449.438.81.92 1.279 1.336.71.63 1.457 1.224 2.256 1.736.777.498 1.911 1.003 2.185 1.989"/><g transform="translate(0 .178)"><mask id="b" fill="#fff"><use xlink:href="#a"/></mask><path fill="#DB6D36" fill-rule="nonzero" d="M2.078 3.796a.124.124 0 0 1-.096-.044c-.187-.221-.366-.45-.535-.685-.046-.066-.11-.15-.18-.25C.85 2.254.152 1.314.003.687-.028.51.127.366.228.27A.556.556 0 0 1 .653.132C.688.134.719.152.74.18a39.26 39.26 0 0 0 2.322 2.94.122.122 0 0 1-.01.173.121.121 0 0 1-.172-.009A39.304 39.304 0 0 1 .58.374.288.288 0 0 0 .4.447C.291.546.24.61.242.64c.136.57.84 1.521 1.217 2.03.074.101.138.186.185.254.148.207.32.427.524.668a.126.126 0 0 1-.013.174.13.13 0 0 1-.077.03" mask="url(#b)"/></g><path fill="#AB9C97" fill-rule="nonzero" d="M9.675 10.997c-.21-.651-.933-1.202-1.43-1.582l-.105-.082c-.288-.22-.577-.438-.867-.655-1.318-.989-2.68-2.013-3.694-3.284-.28-.343-.57-.678-.87-1.004-.2-.227-.41-.47-.597-.688-.081.077-.132.155-.16.194.182.214.382.44.58.658.296.331.604.675.86.994C4.424 6.845 5.798 7.876 7.13 8.875c.291.22.578.436.862.654l.108.082c.502.385 1.252.958 1.371 1.575.066-.066.134-.129.204-.188M12.112 9.2c.159-.063.346-.114.53-.138-.837-.165-1.528-.378-2.353-.667-2.135-.751-4.056-1.907-5.555-3.343A31.645 31.645 0 0 1 3.023 3.26l-.028-.036c-.085.022-.168.05-.25.083.015.018.03.036.045.051.004.006.004.013.01.018l.043.05c.55.624 1.126 1.225 1.725 1.803 1.523 1.46 3.474 2.636 5.644 3.397.67.237 1.257.422 1.901.574"/><path fill="#FFF" fill-rule="nonzero" d="M48.866 5.105c-.319-.437-.941-.562-1.44-.642-.34-.056-.55-.213-.864-.326-.33-.117-.675-.181-.988-.338-.615-.311-.689-.992-1.156-1.435-.522-.494-1.154-.915-1.86-1.041-.799-.144-1.53-.437-2.36-.333-.7.089-1.34.44-1.79.983-.307.364-.541.784-.86 1.14-.278.31-.694.5-.93.843a6.53 6.53 0 0 0-.442.746c-.383.75-.833 1.478-1.145 2.262-.117.3-.209.588-.468.798-.237.19-.556.237-.831.349-.876.363-1.606.973-2.425 1.429-1.482.825-3.722.558-5.364.668-2.062.137-4.065-.04-6.116-.217-.352-.032-.687-.124-1.032-.184-.365-.06-.729-.132-1.09-.216-.536-.13-1.049-.333-1.574-.493-.43-.128-.85-.096-1.287-.13-.47-.04-.927-.197-1.406-.173-.587.03-1.089.249-1.6.53-1.082.593-2.065 1.342-2.806 2.342-.749 1.01-.941 2.001-1.198 3.212-.106.506-.213 1.02-.366 1.519-.163.53-.408 1.298-.883 1.634-.234.166-.489.3-.759.399-.24.085-.503.101-.742.203-.527.223-.762.667-.846 1.224a5.925 5.925 0 0 0-.066.88c0 .449-.074.878-.146 1.318-.07.427-.22.86-.294 1.283-.078.462.022 1.016.192 1.444.433 1.093 1.819 1.94 2.985 1.533.662-.23.786-.852.48-1.457-.318-.633-1.198-.599-1.45-1.274-.218-.58-.066-1.329.312-1.807.629-.792 1.183-.58 2.078-.58 1.088 0 2.512-.08 3.472-.67.613-.377 1.222-1.536 1.95-1.626.25-.032.648.19.892.254.729.19 1.477.212 2.222.244 4.025.167 7.71 1.597 11.633 2.257.785.132 1.584.452 2.392.401.017 0 .033-.004.05-.006.023.24.05.481.082.72.07.528.078 1.06.141 1.587.039.327.081.674.223.976.234.494.77.743 1.289.79.282.027.571 0 .855-.014.308-.019.617-.025.92-.065.258-.036.543-.099.708-.315a.815.815 0 0 0 .167-.612c-.04-.353-.295-.682-.631-.84-.403-.189-.945-.032-1.307-.334-.589-.493.019-1.544.202-2.088.052-.152.107-.303.164-.457 1.797-.458 3.202-1.242 4.702-2.393.492-.378 1.032-.677 1.49-1.102 1.015-.94 1.406-2.281 1.762-3.577.218-.79.387-1.771.878-2.445.157-.215.415-.326.557-.548.241-.39.038-.892.262-1.29.153-.275.565-.443.86-.478.286-.036.582-.045.855-.136.266-.092.446-.343.71-.434.28-.095.608-.009.895-.033.336-.026.653-.165.899-.396.162-.142.254-.295.364-.47.13-.21.303-.384.419-.605a9.29 9.29 0 0 0 .402-.83c.194-.474.392-1.1.058-1.558"/><path fill="#924219" fill-rule="nonzero" d="M46.965 5.121c-.044-.367-.15-.832-.543-.95-.132-.04-.268-.07-.402-.12a2.23 2.23 0 0 1-.822-.525c-.248-.257-.266-.565-.417-.872-.17-.343-1.462-1.064-2.072-1.303-.612-.24-1.8-.414-2.48-.414-.528 0-1.237.486-1.6.856-.327.337-.557.761-.885 1.098-.368.377-.823.651-1.162 1.063-.318.393-.533.91-.773 1.356-.276.518-.539 1.048-.717 1.61-.062.194-.113.413.17.418.133.002.263-.013.385.05.356.182.28.515.39.843.23.703.697.995 1.232 1.417.21.167.42.326.631.49.443.023.623-.358.769-.908.17-.645.298-1.315.387-1.96.089-.641.079-1.309.417-1.884.184.134.108.675.103.87-.012.518-.083 1.034-.06 1.555.035.808-.245 1.525-.483 2.292a7.14 7.14 0 0 0-.193.756c.159.122.316.242.472.367.18.142 2.098 1.121 2.876 1.517-.057-.03.385-.744.656-1.183.102-.162.179-.287.199-.325.155-.299.225-.545.299-.872.074-.327.279-.642.624-.704.343-.061.651.128.946-.148.291-.274.435-.675.525-1.056.2-.844.793-1.156 1.209-1.86a2.41 2.41 0 0 0 .319-1.474m-10.2 11.043c.376-.113.742-.347.812-.766.074-.43-.136-.876-.325-1.248-.168-.331-.344-.703-.604-.97-.129-.135-.26-.246-.364-.403a3.337 3.337 0 0 1-.451-1.069c-.096-.38-.191-.776-.468-1.067-.266-.278-.757-.493-.877-.89-.119-.396.226-.79.162-1.193-.147-.923-1.122-.407-1.598-.072-.912.643-1.695.73-2.796.907-.842.136-1.633.49-2.476.642-2.085.384-4.25.214-6.359.045-.613-.049-1.214-.08-1.825-.2-.584-.115-1.811-.141-1.852.718-.027.58.546.975.813 1.42.144.246.216.604.1.878-.159.37-.522.594-.715.94a3.337 3.337 0 0 0-.368.993c-.123.704.046 1.437.59 1.922 1.154 1.026 2.561 1.704 4.018 2.168.617.2 1.74.608 2.392.4.708-.226.66-1.513.81-2.09.088-.353.15-.763.532-.893.464-.158.835.221 1.067.579.553.842.773 1.844 1.38 2.659.462.623 1.215.485 1.677-.072.326-.394.483-.836.898-1.15.37-.284.83-.37 1.227-.613.68-.418 1.144-1.179 1.919-1.435.87-.29 1.81.125 2.681-.14M15.833 9.29a.472.472 0 0 0 .034-.074c.056-.125-1.992-.401-2.157-.393-.484.028-1.039.074-1.493.235-.97.345-1.65 1.205-2.36 1.912-.391.39-.767.796-1.126 1.215-.361.422-.467.893-.633 1.434-.128.417-.117.897-.288 1.293-.156.368-.13.838-.214 1.233a3.156 3.156 0 0 1-.237.72 3.21 3.21 0 0 0-.075.155h-.13l-.236.437s.126.441.519.733c.043.03.087.059.134.085.267.15.601.229.858.274 1.042.183 2.13-.107 3.123-.406 1.2-.363 2.153-1.065 2.784-2.164.504-.874.464-1.864.384-2.827a4.89 4.89 0 0 1 .104-1.41c.184-.889.63-1.645 1.01-2.452"/><path fill="#924219" fill-rule="nonzero" d="M42.226 3.526c.195.791.052 1.666.224 2.472.152.71.277 1.427.307 2.147.078 1.885.31 3.722.389 5.606.03.683.225 1.757-.743 1.718-.743-.027-1.435-.783-2.022-1.165a3.489 3.489 0 0 1-1.582-2.642c-.085-1.041.564-1.938.717-2.94.146-.938.045-1.96.125-2.905.054-.644.117-1.314.449-1.898"/><path fill="#171714" fill-rule="nonzero" d="M11.613 9.343c-.748.32-1.436.942-1.977 1.537-.206.23-.4.47-.583.72-.2.269-.525.551-.572.9.485.285 1.167.147 1.687-.01.265-.08.518-.199.786-.263.625-.154 1.11.1 1.501.593.49.615.875 2.154 1.617 2.48.814.363.669-1.003.669-1.517.001-.803.023-1.603.226-2.386.096-.362.225-.717.414-1.04.092-.152.195-.324.275-.483.073-.147.157-.254.25-.388.04-.06.211-.207.18-.286-.021-.053-.189-.085-.237-.098-1.067-.283-2.178-.34-3.254-.079a7.676 7.676 0 0 0-.982.32m14.767.903c-.49.092-.903.3-1.363.874-.239.295-.44.59-.84.628-.344.033-.873-.17-.785-.581.085-.393.632-.494.824-.778-.858-.391-2.096-.135-3.03-.21a4.456 4.456 0 0 1-.5-.08 29.017 29.017 0 0 0-2.328-.397c-.163-.02-.295-.033-.398.11-.2.277-.39.559-.424.908-.027.266.157.415.335.584.246.236.49.487.66.789.206.364.176.908-.243 1.11-.574.278-1.002-.405-1.591-.438-.677-.035-1.068.447-1.118 1.104-.057.714.392 1.481.816 2.011.89 1.108 2.335 2.28 3.74 2.612.985.233 3.576 1.343 4.438.902.963-.494.485-2.003 1.013-2.753.92-1.302 1.936 1.403 2.198 1.983.26.58.558 1.481 1.334 1.395.677-.072 1.054-.885 1.454-1.346.508-.582 1.109-.577 1.66-1.01.712-.565.055-1.506-.076-2.167-.138-.684.385-1.643 1.136-1.84.787-.205 1.65.516 2.457.473.314-.016.688-.088.9-.341.301-.358.058-.547-.22-.807-.645-.594-.426-1.524-.93-2.19-.257-.34-.677-.528-.88-.915-.26-.49.237-1.071-.006-1.56-.072-.148-.259-.247-.408-.296-.155-.047-.326.057-.45.143-.117.08-.252.125-.38.188-.275.14-.545.292-.807.455-.106.062-.208.127-.315.184-.552.296-1.042.232-1.644.304-1.002.12-1.884.756-2.872.835-.543.046-.974.046-1.357.117m11.374-4.375c-1.359-1.063.135-1.791.284-2.87a1.02 1.02 0 0 0 .003-.27c-.003-.052-.017-.234-.065-.259-.009-.005-.015-.006-.024-.002-.036.012-.07.086-.088.113a1.538 1.538 0 0 1-.144.185c-.105.12-.232.224-.348.336-.027.025-.074.065-.09.106-.099.108-.19.212-.271.288-.337.317-.666.594-.94.973a6.496 6.496 0 0 0-.798 1.547c-.065.18-.122.361-.172.546-.037.138-.062.278-.093.416-.034.149-.115.28-.163.421.055.035.188-.012.248-.025.16-.033.381-.056.526.019.323.166.32.537.417.836.161.49.494.827.883 1.143.052.043.1.09.149.135.121.113.237.226.364.333.122.103.257.226.41.279a.42.42 0 0 0 .48-.182c.089-.137.133-.308.182-.463a3.93 3.93 0 0 0 .12-.568c.047-.308.086-.618.09-.93.008-.824-.306-1.597-.96-2.106"/><path fill="#662C0E" fill-rule="nonzero" d="M44.776 3.776c-.024-.078-.047-.157-.072-.229-.085-.259-.128-.728-.461-.792-.331-.063-.517 1.127-.613 1.35-.116.263-.339.647.073.72.358.064.625.098.965.268.225.111.6.423.617-.032.008-.21-.1-.34-.203-.502-.138-.226-.226-.515-.305-.783"/><path fill="#FFF" fill-rule="nonzero" d="M43.818 4.321s-.02-.004 0-.047c.021-.042.212-.359.318-.464.106-.108.188-.173.29-.148.104.025.172.17.172.276 0 .104.009.34-.236.377-.247.036-.525.046-.544.006"/><path fill="#171714" fill-rule="nonzero" d="M44.394 4.035a.438.438 0 0 1-.035-.293c.06-.167.236-.033.281.062.044.086.059.314-.037.38-.061.043-.109-.008-.143-.045a.386.386 0 0 1-.066-.104"/><path fill="#CCC2B2" fill-rule="nonzero" d="M48.596 7.179c-.01-.008-.023-.01-.034-.013 0-.025.002-.054 0-.059-.003-.01-.054-.014-.054-.014l-.07.125a.027.027 0 0 0-.01.007 5.64 5.64 0 0 1-.582.844 2.574 2.574 0 0 1-.891.67c-.322.15-.578.171-.9.196-.094.009-.195.017-.302.029-.21.023-.344.134-.465.232-.072.057-.135.11-.214.15l-.019.006c-.064.08-.163.2-.285.317.135-.008.27-.034.412-.103.1-.053.186-.12.258-.179.11-.093.202-.164.339-.18.107-.011.204-.019.295-.027.332-.026.62-.049.984-.219.375-.17.707-.42.973-.733a5.91 5.91 0 0 0 .61-.883.123.123 0 0 0-.045-.166m-.167-2.269a.104.104 0 0 1-.049-.012c-.238-.103-.523-.17-.771-.23a5.608 5.608 0 0 1-.412-.11 9.598 9.598 0 0 0-.533-.16c-.12-.036-.245-.071-.368-.109a.124.124 0 0 1-.023-.226.121.121 0 0 1 .093-.01c.121.04.245.073.365.108.19.054.37.107.544.163.102.037.242.07.39.105.26.062.555.131.813.246a.121.121 0 0 1 .06.161.12.12 0 0 1-.109.074"/><path fill="#AB9C97" fill-rule="nonzero" d="M13.854 21.835a.13.13 0 0 0-.021.027c-.3.415.341.981.626 1.232.383.334.854.537 1.366.478.572-.066 1.3-.194 1.686.374.161.237.252.567.258.854.005.313-.232.399-.492.459-.33.078-.662.12-.997.172-.607.1-1.23.002-1.777-.278-.736-.374-1.071-1.257-1.781-1.684-.738-.446-2.016-.53-1.982-1.644.011-.381.222-.64.427-.935.054-.072.094-.174.171-.227.072-.048.17-.061.249-.098.397-.179.75-.374 1.067-.672.094-.089.823-1.078.864-1.065.22.076.422.126.649.177.254.056.505.14.763.178.306.042.616.071.924.1.137.013.347.091.474.05-.019.007-.07.464-.083.519a1.36 1.36 0 0 1-.184.444 2.65 2.65 0 0 1-.657.75c-.48.367-1.152.315-1.55.79"/><path fill="#CCC2B2" fill-rule="nonzero" d="M35.685 24.593c-.126 0-.258-.01-.388-.02-.09-.006-.173-.012-.258-.016a.12.12 0 0 1-.118-.127.119.119 0 0 1 .126-.116c.086.001.177.009.268.016.342.023.697.05.859-.117.09-.09.123-.243.1-.468-.046-.489-.359-.742-.977-.796-.266-.023-.463-.111-.584-.258-.11-.141-.157-.33-.13-.563a9.93 9.93 0 0 1 .18-1.086.122.122 0 0 1 .237.05 10.41 10.41 0 0 0-.178 1.062c-.016.167.009.295.078.382.08.094.218.15.42.17.736.063 1.136.405 1.197 1.015.028.301-.028.518-.168.666-.161.165-.402.207-.664.207"/><path fill="#AB9C97" fill-rule="nonzero" d="M33.768 8.27a.119.119 0 0 1-.108-.066.122.122 0 0 1 .054-.164c.075-.04.145-.071.216-.105.124-.056.244-.109.36-.186.189-.128.341-.31.475-.49a.123.123 0 0 1 .173-.019.126.126 0 0 1 .022.172c-.144.186-.308.41-.54.542a3.81 3.81 0 0 1-.399.2c-.064.031-.127.067-.198.104a.126.126 0 0 1-.055.012"/><path fill="#CCC2B2" fill-rule="nonzero" d="M33.657 21.577a.124.124 0 0 1-.12-.091.123.123 0 0 1 .09-.15c1.88-.486 3.44-1.553 4.722-2.534.187-.146.385-.28.576-.41.309-.21.626-.426.903-.685.818-.757 1.213-1.79 1.492-2.7a.122.122 0 0 1 .153-.081c.064.021.1.09.08.154-.29.942-.701 2.01-1.56 2.807-.292.271-.617.494-.933.71a9.87 9.87 0 0 0-.566.402c-1.297.995-2.886 2.08-4.807 2.575l-.03.003"/><path fill="#CCC2B2" fill-rule="nonzero" d="M32.867 26.229c-.264 0-.53-.022-.794-.093-.98-.267-1.027-1.606-1.045-2.112-.023-.703-.1-1.419-.173-2.114a22.915 22.915 0 0 1-.071-.677 7.718 7.718 0 0 0-.099-.594c-.069-.356-.146-.758-.142-1.112a.12.12 0 0 1 .121-.12h.002c.065 0 .119.056.119.123-.001.328.072.716.138 1.062.042.224.083.435.103.616l.069.674c.074.7.152 1.423.175 2.135.026.773.15 1.687.866 1.881.44.118.91.087 1.363.057l.069-.008c.135-.007.27-.006.397-.003.267.003.518.007.756-.082.422-.163.518-.536.467-.83a1.036 1.036 0 0 0-.58-.75c-.153-.07-.337-.086-.531-.104-.28-.024-.567-.051-.802-.248-.551-.458-.214-1.281.034-1.883.05-.124.097-.24.131-.338.07-.209.15-.422.23-.636.25-.672.51-1.367.539-2.059a9.98 9.98 0 0 1 .018-.286c.022-.257.045-.524-.024-.707a.12.12 0 1 1 .226-.085c.09.234.064.529.04.813a8.556 8.556 0 0 0-.019.275c-.03.731-.297 1.445-.552 2.135a24.3 24.3 0 0 0-.228.628c-.034.104-.086.224-.139.353-.217.532-.516 1.258-.103 1.601.177.147.417.17.67.191.205.02.419.038.61.129.383.178.651.527.72.928a.964.964 0 0 1-.622 1.102c-.281.107-.57.102-.844.098a4.309 4.309 0 0 0-.378.006l-.068.003c-.212.014-.431.03-.649.03"/><path fill="#DB6D36" fill-rule="nonzero" d="M42.415 15.487l-.054-.002c-.573-.022-1.11-.442-1.58-.813a7.115 7.115 0 0 0-.501-.373 3.591 3.591 0 0 1-1.638-2.735c-.053-.647.166-1.24.38-1.81.137-.376.28-.764.339-1.159.083-.53.084-1.1.087-1.651 0-.412.003-.838.036-1.246.053-.621.111-1.324.465-1.95a.121.121 0 0 1 .222.032.122.122 0 0 1-.013.092c-.324.575-.38 1.251-.432 1.848-.033.396-.035.817-.037 1.224 0 .56-.002 1.14-.088 1.69-.063.417-.21.82-.354 1.205-.211.572-.411 1.113-.363 1.705a3.339 3.339 0 0 0 1.528 2.55c.168.108.337.242.518.385.444.347.944.742 1.442.76.211.008.362-.039.464-.143.233-.242.196-.77.17-1.197a7.673 7.673 0 0 1-.016-.25c-.04-.93-.12-1.867-.194-2.774-.076-.922-.157-1.878-.195-2.83-.033-.776-.18-1.546-.302-2.13-.088-.398-.097-.813-.108-1.215-.01-.44-.02-.854-.118-1.252a.118.118 0 0 1 .088-.148.12.12 0 0 1 .146.089c.106.424.117.87.126 1.305.01.389.02.794.1 1.17.129.592.278 1.376.311 2.17.039.946.12 1.901.195 2.823.075.907.153 1.846.193 2.78l.014.245c.033.5.07 1.065-.234 1.382-.143.148-.344.223-.597.223"/><path fill="#CCC2B2" fill-rule="nonzero" d="M34.469 26.142a.118.118 0 0 1-.056-.015.126.126 0 0 1-.052-.167c.082-.154.05-.378-.088-.609-.189-.314-.525-.563-.769-.565a.122.122 0 0 1-.121-.124.12.12 0 0 1 .123-.122c.373.004.773.348.973.686.182.305.219.616.098.848a.122.122 0 0 1-.108.068m-2.794-7.273a.114.114 0 0 1-.083-.036.122.122 0 0 1-.003-.173c.447-.469 1.119-.755 2-.852.144-.017.317-.018.499-.019.435-.002.926-.006 1.165-.215a.12.12 0 0 1 .172.013.124.124 0 0 1-.012.172c-.307.27-.847.274-1.325.276-.174.003-.34.004-.473.018-.82.09-1.445.352-1.851.778a.121.121 0 0 1-.088.038m-14.029 6.478a.117.117 0 0 1-.075-.023.124.124 0 0 1-.023-.17c.271-.36-.002-.862-.094-1.01-.297-.48-.802-.452-1.334-.423a4.207 4.207 0 0 1-.59.009c-.354-.027-.742-.216-1.188-.578-.364-.294-.932-.86-.641-1.3.162-.248.454-.398.66-.491.551-.247 1.03-.46 1.402-.938.221-.28.445-.619.433-1.014a.12.12 0 0 1 .12-.126c.066 0 .121.052.123.119.012.477-.238.86-.484 1.173-.41.525-.938.761-1.494 1.01-.18.08-.43.208-.559.402-.156.236.205.658.593.974.4.326.754.502 1.05.526.179.01.365.001.562-.01.551-.03 1.18-.067 1.554.539.112.18.446.803.08 1.284a.115.115 0 0 1-.095.047"/><path fill="#CCC2B2" fill-rule="nonzero" d="M15.7 25.6c-.243 0-.485-.017-.726-.05-.678-.093-1.105-.617-1.517-1.122a9.694 9.694 0 0 0-.317-.377c-.383-.42-.89-.65-1.382-.837-.473-.18-.974-.447-1.099-1.055a1.365 1.365 0 0 1 .157-.897 5.95 5.95 0 0 1 .405-.64.118.118 0 0 1 .17-.027c.053.04.066.115.027.17a6.031 6.031 0 0 0-.39.616 1.117 1.117 0 0 0-.133.73c.102.489.515.709.95.876.518.196 1.057.441 1.471.9.113.122.224.256.329.385.383.469.779.952 1.363 1.036.825.116 1.64.003 2.61-.199a.123.123 0 0 1 .144.095c.013.065-.03.133-.095.144-.715.15-1.347.252-1.967.252m-9.345.89h-.007a.124.124 0 0 1-.113-.13c.015-.248-.159-.925-.427-1.168-.07-.064-.138-.088-.208-.079a.121.121 0 0 1-.14-.098.124.124 0 0 1 .098-.142.48.48 0 0 1 .41.135c.344.31.528 1.071.509 1.366a.122.122 0 0 1-.122.117"/><path fill="#CCC2B2" fill-rule="nonzero" d="M16.942 25.399a.12.12 0 0 1-.118-.097c-.142-.651-.441-.93-1-.932a.124.124 0 0 1-.119-.126.12.12 0 0 1 .12-.12h.001c.678.006 1.067.362 1.235 1.125a.121.121 0 0 1-.092.145c-.01.004-.018.004-.027.004m-10.6 1.16c-.195 0-.38-.02-.559-.058-.901-.193-1.682-.955-2.041-1.99-.276-.789-.088-1.492.091-2.172.078-.287.155-.581.2-.886.041-.265.036-.535.03-.798-.01-.465-.017-.947.216-1.418.276-.553.674-.636 1.097-.722.204-.044.416-.088.63-.189.404-.192.717-.509.954-.973.033-.06.105-.084.162-.053.06.032.086.107.054.166-.262.513-.614.866-1.07 1.082a2.882 2.882 0 0 1-.682.205c-.393.083-.703.148-.928.595-.208.417-.199.846-.189 1.301.005.275.011.556-.033.842-.049.318-.129.619-.206.91-.179.676-.349 1.312-.098 2.03.26.747.886 1.62 1.86 1.83.323.069.666.069 1.078.003.169-.029.302-.102.456-.252.109-.107.113-.2.113-.4a.121.121 0 1 1 .243 0c0 .202 0 .393-.186.575-.19.188-.366.282-.587.32-.2.033-.402.05-.605.052"/><path fill="#CCC2B2" fill-rule="nonzero" d="M7.493 26.167a.124.124 0 0 1-.082-.031.126.126 0 0 1-.008-.175c.153-.17.087-.494.013-.757-.057-.206-.177-.492-.422-.69-.115-.09-.261-.139-.416-.188-.236-.076-.477-.154-.629-.389-.363-.561-.238-1.378.044-1.937.28-.55.707-.878 1.173-.902.256-.012.51 0 .76.012.347.015.703.033 1.054-.017 1.284-.182 2.418-.389 3.274-1.086.508-.417.912-.97 1.305-1.506.435-.596.887-1.215 1.491-1.66a.122.122 0 0 1 .171.026.125.125 0 0 1-.027.17c-.574.426-1.015 1.028-1.441 1.61-.4.548-.814 1.115-1.347 1.548-.977.797-2.373.996-3.392 1.142-.371.05-.743.034-1.1.019-.242-.013-.493-.023-.738-.013-.376.019-.727.297-.965.77-.298.586-.32 1.28-.058 1.69.105.162.296.222.497.29.172.053.346.112.493.228.296.238.439.576.507.817.09.322.166.727-.066.987a.124.124 0 0 1-.091.042"/><path fill="#CCC2B2" fill-rule="nonzero" d="M30.993 22.087h-.005a6.272 6.272 0 0 1-.244-.011c-2.133-.107-4.187-.678-6.171-1.232-1.591-.443-3.234-.901-4.898-1.111-.707-.092-1.41-.134-2.087-.177-1.424-.089-2.766-.174-4.134-.648a.12.12 0 0 1-.075-.156.117.117 0 0 1 .151-.072c1.337.462 2.666.547 4.074.634.68.044 1.385.088 2.1.18 1.683.213 3.334.672 4.93 1.117 1.973.55 4.013 1.119 6.123 1.224.08.006.161.009.24.012a.12.12 0 0 1-.003.24"/><path fill="#171714" fill-rule="nonzero" d="M48.584 4.78a1.256 1.256 0 0 0-.204-.103l-.02-.004-.102-.071c-.128-.07-.25.16-.311.247-.02.03-.04.062-.058.095a.329.329 0 0 0-.06.131.076.076 0 0 0-.003.038c.002.063.04.111.135.13.203.043.448-.281.635-.018.197.278-.179.242-.32.343-.205.14-.19.34-.141.596.02.098.362 1.024.322 1.062.37-.338.531-1.114.637-1.587.067-.308-.171-.617-.51-.858"/><path fill="#DB6D36" fill-rule="nonzero" d="M43.135 7.31a.121.121 0 0 1-.121-.122c-.001-.946-.001-1.84.293-2.765.03-.095.067-.201.109-.315.197-.556.47-1.32.154-1.722a.124.124 0 0 1 .02-.173.121.121 0 0 1 .17.02c.4.51.102 1.347-.116 1.958-.038.11-.077.214-.106.307-.283.888-.281 1.764-.281 2.69a.121.121 0 0 1-.122.123"/><path fill="#AB9C97" fill-rule="nonzero" d="M49.12 5.36c-.05-.293-.26-.517-.652-.688l-.318-.11c-.047.06-.1.14-.148.208l.378.128c.302.135.465.3.502.505.087.506-.042 1.08-.383 1.702l-.042.07.09.334.164-.282c.369-.676.506-1.303.41-1.867"/><path fill="#DB6D36" fill-rule="nonzero" d="M44.77 9.67c.123-.12.22-.237.285-.318-.17.081-.339.077-.535.07-.089 0-.183-.003-.28.002-.315.02-.565.14-.832.403-.222.22-.244.43-.27.672-.004.036-.007.075-.013.115l-.006.05c-.024.193-.057.481-.199.573a.125.125 0 0 0 .066.228.132.132 0 0 0 .066-.02c.237-.155.28-.514.308-.751l.005-.05c.006-.041.011-.082.014-.119.025-.227.038-.365.198-.522.225-.221.422-.318.677-.333.09-.007.177-.004.263 0 .081.001.167.004.253 0m1.725-5.578c-.136-.043-.272-.083-.303-.093a3.236 3.236 0 0 1-.742-.336c-.17-.107-.267-.32-.371-.547-.075-.158-.152-.323-.258-.457-.914-1.165-2.707-1.614-3.235-1.722-1.045-.217-1.856-.176-2.41.122-.393.214-.7.658-.923.982-.07.1-.144.198-.222.292-.028.035-.058.073-.092.107.065.053.088.155.1.263.062-.072.123-.142.182-.215.078-.098.159-.2.233-.307.207-.302.494-.72.837-.905.502-.272 1.257-.304 2.247-.1 1.043.217 2.405.762 3.094 1.635.087.113.155.258.224.41.117.248.235.504.463.649.21.135.464.25.798.362l.46.14.149.044c.008.003.019.004.029.006a2.416 2.416 0 0 0-.26-.33"/><path fill="#AB9C97" fill-rule="nonzero" d="M38.031 2.662a.964.964 0 0 0-.075-.24c-.05.055-.099.11-.145.169-.243.266-.513.518-.773.762-.264.247-.537.5-.785.775-.465.517-.649 1.015-.863 1.592-.049.127-.095.255-.148.39-.04.099-.079.207-.119.313-.1.278-.205.566-.35.821 0 .005 0 .01-.002.016h-.006a.117.117 0 0 1-.021.03v.01c-.003.19.17.133.216.112a.167.167 0 0 0 .02-.04l.007-.006c.15-.274.26-.57.366-.859.038-.104.077-.207.116-.308l.147-.391c.205-.555.384-1.032.816-1.514.24-.268.51-.518.77-.761a12.737 12.737 0 0 0 .73-.72c.043-.044.071-.069.107-.11l-.008-.04M18.192 9.87c.164-.06.4-.137.569-.148a11.812 11.812 0 0 1-.459-.076c-.48-.092-.96-.225-1.424-.353a23.75 23.75 0 0 0-1.259-.31c.041.042.154.166.214.291.331.078.66.166.982.254.455.13.914.243 1.377.342"/><path fill="#AB9C97" fill-rule="nonzero" d="M15.62 8.983a7.892 7.892 0 0 0-.818-.137c-.395-.046-.852-.09-1.268-.06-.808.06-1.507.208-2.286.745-.246.169-.459.364-.683.568a9.043 9.043 0 0 1-.459.402.123.123 0 0 0-.019.17c.027.03.06.045.095.045a.115.115 0 0 0 .075-.026c.165-.136.318-.275.467-.412.218-.2.426-.387.657-.547.737-.508 1.4-.648 2.17-.703.395-.03.839.014 1.222.057.357.04.712.109 1.06.19.07.016.138.036.208.05.035-.04.112-.138.172-.203a18.552 18.552 0 0 0-.594-.139m18.273-1.025l-.23.113a13.06 13.06 0 0 0-1.037.55c-.599.367-1.142.46-1.718.558-.341.058-.694.115-1.081.235-.194.059-.396.131-.588.201-.325.12-.663.243-.986.303-.207.039-.414.049-.636.063l-.647.037c-.302.009-.604.052-.893.09-.307.042-.624.086-.937.09-1.44.014-2.912-.13-4.331-.271l-.117-.011c-.212-.021-.425-.039-.636-.058a22.234 22.234 0 0 1-1.294-.135 11.25 11.25 0 0 1-.459-.076l-.169-.036v.002c-.066.063-.15.169-.178.205.08.019.158.038.237.053l.067.012c.59.115 1.193.165 1.776.216.21.02.421.036.63.058l.119.01c1.425.14 2.898.286 4.357.273.327-.002.655-.049.965-.095.287-.039.58-.077.873-.086l.651-.037c.216-.013.444-.024.666-.068.343-.062.689-.188 1.023-.31.19-.07.39-.142.576-.2a8.14 8.14 0 0 1 1.051-.227c.6-.103 1.167-.199 1.802-.591.313-.191.705-.383 1.018-.539l.496-.242s-.142-.055-.37-.087"/><path fill="#DB6D36" fill-rule="nonzero" d="M10.453 10.37a.12.12 0 0 0-.171-.015l-.12.098c-.353.298-.725.61-1.054.952-.655.674-1.055 1.394-1.188 2.133-.042.223-.074.452-.104.672-.064.46-.134.934-.277 1.377-.066.197-.12.4-.175.596a8.73 8.73 0 0 1-.242.792l-.06.15c-.031.075-.063.15-.099.22l-.057.096c.018.047.057.15.125.27l.144-.246c.043-.082.08-.167.116-.252a5.72 5.72 0 0 0 .083-.223v-.002c.087-.245.158-.494.225-.74.053-.193.107-.394.17-.584.151-.464.22-.948.286-1.418.03-.22.064-.445.103-.662.125-.691.505-1.367 1.123-2.007.323-.333.685-.64 1.039-.936l.116-.097a.124.124 0 0 0 .017-.173"/></g></svg>